<svg width="104" height="19" viewBox="0 0 104 19" fill="none" xmlns="http://www.w3.org/2000/svg">
<path d="M13.9726 10.9081C13.7753 11.0992 13.6847 11.3757 13.7297 11.6468L14.4067 15.394C14.4638 15.7116 14.3298 16.033 14.064 16.2165C13.8035 16.4069 13.457 16.4298 13.1729 16.2775L9.79975 14.5181C9.68246 14.4557 9.55222 14.4222 9.41894 14.4184H9.21254C9.14095 14.429 9.07089 14.4519 9.00691 14.4869L5.63298 16.2546C5.46619 16.3384 5.27731 16.3681 5.09223 16.3384C4.64136 16.2531 4.34053 15.8236 4.4144 15.3704L5.09223 11.6232C5.13717 11.3498 5.04654 11.0718 4.84928 10.8776L2.09911 8.21195C1.8691 7.9888 1.78913 7.65369 1.89423 7.35132C1.99629 7.04972 2.25676 6.82962 2.57131 6.78011L6.35651 6.23098C6.6444 6.20128 6.89725 6.02611 7.02672 5.76716L8.69465 2.3475C8.73425 2.27134 8.78528 2.20127 8.84697 2.14186L8.91552 2.08855C8.95131 2.04895 8.99244 2.0162 9.03814 1.98954L9.12115 1.95907L9.25063 1.90576H9.57126C9.85763 1.93546 10.1097 2.10683 10.2415 2.36273L11.9315 5.76716C12.0533 6.01621 12.2902 6.1891 12.5636 6.23098L16.3488 6.78011C16.6687 6.82581 16.936 7.04668 17.0419 7.35132C17.1417 7.65673 17.0556 7.99184 16.821 8.21195L13.9726 10.9081Z" fill="#F6B76F"/>
<path d="M35.2949 10.9091C35.0976 11.1002 35.007 11.3767 35.0519 11.6478L35.729 15.395C35.7861 15.7126 35.6521 16.034 35.3863 16.2175C35.1258 16.4079 34.7793 16.4308 34.4952 16.2785L31.122 14.5191C31.0047 14.4567 30.8745 14.4232 30.7412 14.4193H30.5348C30.4632 14.43 30.3932 14.4529 30.3292 14.4879L26.9552 16.2556C26.7885 16.3394 26.5996 16.3691 26.4145 16.3394C25.9636 16.2541 25.6628 15.8245 25.7367 15.3714L26.4145 11.6242C26.4594 11.3508 26.3688 11.0728 26.1715 10.8786L23.4214 8.21293C23.1914 7.98977 23.1114 7.65466 23.2165 7.3523C23.3186 7.0507 23.579 6.83059 23.8936 6.78109L27.6788 6.23196C27.9667 6.20226 28.2195 6.02709 28.349 5.76814L30.0169 2.34848C30.0565 2.27231 30.1075 2.20225 30.1692 2.14284L30.2378 2.08953C30.2736 2.04992 30.3147 2.01717 30.3604 1.99052L30.4434 1.96005L30.5729 1.90674H30.8935C31.1799 1.93644 31.432 2.10781 31.5637 2.36371L33.2538 5.76814C33.3756 6.01719 33.6125 6.19007 33.8859 6.23196L37.6711 6.78109C37.991 6.82678 38.2583 7.04765 38.3642 7.3523C38.4639 7.65771 38.3779 7.99282 38.1433 8.21293L35.2949 10.9091Z" fill="#F6B76F"/>
<path d="M56.623 10.9091C56.4257 11.1002 56.3351 11.3767 56.3801 11.6478L57.0571 15.395C57.1142 15.7126 56.9802 16.034 56.7144 16.2175C56.4539 16.4079 56.1074 16.4308 55.8233 16.2785L52.4501 14.5191C52.3329 14.4567 52.2026 14.4232 52.0693 14.4193H51.8629C51.7913 14.43 51.7213 14.4529 51.6573 14.4879L48.2834 16.2556C48.1166 16.3394 47.9277 16.3691 47.7426 16.3394C47.2918 16.2541 46.9909 15.8245 47.0648 15.3714L47.7426 11.6242C47.7876 11.3508 47.6969 11.0728 47.4997 10.8786L44.7495 8.21293C44.5195 7.98977 44.4395 7.65466 44.5446 7.3523C44.6467 7.0507 44.9072 6.83059 45.2217 6.78109L49.0069 6.23196C49.2948 6.20226 49.5476 6.02709 49.6771 5.76814L51.345 2.34848C51.3846 2.27231 51.4357 2.20225 51.4974 2.14284L51.5659 2.08953C51.6017 2.04992 51.6428 2.01717 51.6885 1.99052L51.7715 1.96005L51.901 1.90674H52.2217C52.508 1.93644 52.7601 2.10781 52.8919 2.36371L54.5819 5.76814C54.7037 6.01719 54.9406 6.19007 55.214 6.23196L58.9992 6.78109C59.3191 6.82678 59.5864 7.04765 59.6923 7.3523C59.7921 7.65771 59.706 7.99282 59.4714 8.21293L56.623 10.9091Z" fill="#F6B76F"/>
<path d="M77.9502 10.9091C77.7529 11.1002 77.6623 11.3767 77.7072 11.6478L78.3843 15.395C78.4414 15.7126 78.3073 16.034 78.0415 16.2175C77.7811 16.4079 77.4345 16.4308 77.1505 16.2785L73.7773 14.5191C73.66 14.4567 73.5298 14.4232 73.3965 14.4193H73.1901C73.1185 14.43 73.0484 14.4529 72.9845 14.4879L69.6105 16.2556C69.4437 16.3394 69.2548 16.3691 69.0698 16.3394C68.6189 16.2541 68.3181 15.8245 68.3919 15.3714L69.0698 11.6242C69.1147 11.3508 69.0241 11.0728 68.8268 10.8786L66.0766 8.21293C65.8466 7.98977 65.7667 7.65466 65.8718 7.3523C65.9738 7.0507 66.2343 6.83059 66.5488 6.78109L70.334 6.23196C70.6219 6.20226 70.8748 6.02709 71.0043 5.76814L72.6722 2.34848C72.7118 2.27231 72.7628 2.20225 72.8245 2.14284L72.8931 2.08953C72.9289 2.04992 72.97 2.01717 73.0157 1.99052L73.0987 1.96005L73.2282 1.90674H73.5488C73.8352 1.93644 74.0873 2.10781 74.219 2.36371L75.909 5.76814C76.0309 6.01719 76.2678 6.19007 76.5412 6.23196L80.3264 6.78109C80.6463 6.82678 80.9136 7.04765 81.0194 7.3523C81.1192 7.65771 81.0332 7.99282 80.7986 8.21293L77.9502 10.9091Z" fill="#F6B76F"/>
<path d="M99.2724 10.9091C99.0752 11.1002 98.9845 11.3767 99.0295 11.6478L99.7065 15.395C99.7637 15.7126 99.6296 16.034 99.3638 16.2175C99.1033 16.4079 98.7568 16.4308 98.4727 16.2785L95.0996 14.5191C94.9823 14.4567 94.852 14.4232 94.7188 14.4193H94.5124C94.4408 14.43 94.3707 14.4529 94.3067 14.4879L90.9328 16.2556C90.766 16.3394 90.5771 16.3691 90.392 16.3394C89.9412 16.2541 89.6403 15.8245 89.7142 15.3714L90.392 11.6242C90.437 11.3508 90.3463 11.0728 90.1491 10.8786L87.3989 8.21293C87.1689 7.98977 87.0889 7.65466 87.194 7.3523C87.2961 7.0507 87.5566 6.83059 87.8711 6.78109L91.6563 6.23196C91.9442 6.20226 92.1971 6.02709 92.3265 5.76814L93.9945 2.34848C94.0341 2.27231 94.0851 2.20225 94.1468 2.14284L94.2153 2.08953C94.2511 2.04992 94.2922 2.01717 94.3379 1.99052L94.421 1.96005L94.5504 1.90674H94.8711C95.1574 1.93644 95.4095 2.10781 95.5413 2.36371L97.2313 5.76814C97.3532 6.01719 97.59 6.19007 97.8634 6.23196L101.649 6.78109C101.969 6.82678 102.236 7.04765 102.342 7.3523C102.441 7.65771 102.355 7.99282 102.121 8.21293L99.2724 10.9091Z" fill="#F6B76F"/>
</svg>
